<svg xmlns="http://www.w3.org/2000/svg" viewBox="0 0 720 360" width="720" height="360" font-family="Georgia, serif" font-size="11" fill="#1a1714"><rect x="0" y="0" width="720" height="360" fill="#f5f2ee"/><text x="360.0" y="22" font-size="11" text-anchor="middle" font-weight="bold">Same field of view, three detectors — three different images</text><rect x="20" y="50" width="215" height="240" fill="#f5f2ee" stroke="#1a1714" stroke-width="1"/><text x="127.5" y="45" font-size="11" text-anchor="middle" font-weight="bold">SE — topography</text><rect x="30" y="60" width="195" height="220" fill="#c9c2b8" stroke="#1a1714" stroke-width="1"/><line x1="30" y1="60" x2="30" y2="60" stroke="#888076" stroke-width="0.4"/><line x1="40" y1="60" x2="30" y2="70" stroke="#888076" stroke-width="0.4"/><line x1="50" y1="60" x2="30" y2="80" stroke="#888076" stroke-width="0.4"/><line x1="60" y1="60" x2="30" y2="90" stroke="#888076" stroke-width="0.4"/><line x1="70" y1="60" x2="30" y2="100" stroke="#888076" stroke-width="0.4"/><line x1="80" y1="60" x2="30" y2="110" stroke="#888076" stroke-width="0.4"/><line x1="90" y1="60" x2="30" y2="120" stroke="#888076" stroke-width="0.4"/><line x1="100" y1="60" x2="30" y2="130" stroke="#888076" stroke-width="0.4"/><line x1="110" y1="60" x2="30" y2="140" stroke="#888076" stroke-width="0.4"/><line x1="120" y1="60" x2="30" y2="150" stroke="#888076" stroke-width="0.4"/><line x1="130" y1="60" x2="30" y2="160" stroke="#888076" stroke-width="0.4"/><line x1="140" y1="60" x2="30" y2="170" stroke="#888076" stroke-width="0.4"/><line x1="150" y1="60" x2="30" y2="180" stroke="#888076" stroke-width="0.4"/><line x1="160" y1="60" x2="30" y2="190" stroke="#888076" stroke-width="0.4"/><line x1="170" y1="60" x2="30" y2="200" stroke="#888076" stroke-width="0.4"/><line x1="180" y1="60" x2="30" y2="210" stroke="#888076" stroke-width="0.4"/><line x1="190" y1="60" x2="30" y2="220" stroke="#888076" stroke-width="0.4"/><line x1="200" y1="60" x2="30" y2="230" stroke="#888076" stroke-width="0.4"/><line x1="210" y1="60" x2="30" y2="240" stroke="#888076" stroke-width="0.4"/><line x1="220" y1="60" x2="30" y2="250" stroke="#888076" stroke-width="0.4"/><circle cx="70" cy="110" r="20" fill="#c9c2b8" stroke="#1a1714" stroke-width="0.6"/><circle cx="150" cy="140" r="25" fill="#c9c2b8" stroke="#1a1714" stroke-width="0.6"/><circle cx="120" cy="220" r="18" fill="#c9c2b8" stroke="#1a1714" stroke-width="0.6"/><circle cx="190" cy="200" r="14" fill="#c9c2b8" stroke="#1a1714" stroke-width="0.6"/><text x="127.5" y="305" font-size="10" text-anchor="middle" font-style="italic" fill="#403a33">contrast: topography</text><rect x="250" y="50" width="215" height="240" fill="#f5f2ee" stroke="#1a1714" stroke-width="1"/><text x="357.5" y="45" font-size="11" text-anchor="middle" font-weight="bold">BSE — Z-contrast</text><rect x="260" y="60" width="195" height="220" fill="#e0d9cf" stroke="#1a1714" stroke-width="1"/><circle cx="300" cy="110" r="20" fill="#1a1714" stroke="#1a1714" stroke-width="1"/><circle cx="380" cy="140" r="25" fill="#1a1714" stroke="#1a1714" stroke-width="1"/><circle cx="350" cy="220" r="18" fill="#1a1714" stroke="#1a1714" stroke-width="1"/><circle cx="420" cy="200" r="14" fill="#1a1714" stroke="#1a1714" stroke-width="1"/><text x="357.5" y="155" font-size="10" text-anchor="middle" font-style="italic" fill="#403a33">high-Z patches
 bright</text><text x="357.5" y="305" font-size="10" text-anchor="middle" font-style="italic" fill="#403a33">contrast: Z-contrast</text><rect x="480" y="50" width="215" height="240" fill="#f5f2ee" stroke="#1a1714" stroke-width="1"/><text x="587.5" y="45" font-size="11" text-anchor="middle" font-weight="bold">EDS map — Cu Kα</text><rect x="490" y="60" width="195" height="220" fill="#f5f2ee" stroke="#1a1714" stroke-width="1"/><circle cx="530" cy="110" r="20" fill="#403a33" stroke="#1a1714" stroke-width="0.5"/><circle cx="610" cy="140" r="25" fill="#403a33" stroke="#1a1714" stroke-width="0.5"/><circle cx="580" cy="220" r="18" fill="#403a33" stroke="#1a1714" stroke-width="0.5"/><circle cx="650" cy="200" r="14" fill="#403a33" stroke="#1a1714" stroke-width="0.5"/><text x="587.5" y="80" font-size="10" text-anchor="middle" font-style="italic" fill="#403a33">Cu present where bright</text><text x="587.5" y="305" font-size="10" text-anchor="middle" font-style="italic" fill="#403a33">contrast: Cu Kα</text><text x="360.0" y="345" font-size="10" text-anchor="middle" font-style="italic" fill="#403a33">Same specimen, same beam — three independent information channels selected by detector choice.</text></svg>