<svg xmlns="http://www.w3.org/2000/svg" viewBox="0 0 720 460" width="720" height="460" font-family="Georgia, serif" font-size="11" fill="#1a1714"><rect x="0" y="0" width="720" height="460" fill="#f5f2ee"/><text x="360.0" y="22" font-size="11" text-anchor="middle" font-weight="bold">STEM — three concentric detector zones below the specimen</text><line x1="360.0" y1="50" x2="360.0" y2="110" stroke="#1a1714" stroke-width="1.2"/><polygon points="360.0,110 358.3,106.4 361.7,106.4" fill="#1a1714"/><text x="360.0" y="45" font-size="10" text-anchor="middle" font-weight="bold">focused probe</text><line x1="160.0" y1="130" x2="560.0" y2="130" stroke="#1a1714" stroke-width="1.5"/><text x="160.0" y="125" font-size="10" font-style="italic" fill="#403a33">specimen</text><line x1="360.0" y1="130" x2="348.47028855773095" y2="350" stroke="#1a1714" stroke-width="1.0"/><line x1="360.0" y1="130" x2="360.0" y2="350" stroke="#1a1714" stroke-width="1.0"/><line x1="360.0" y1="130" x2="371.52971144226905" y2="350" stroke="#1a1714" stroke-width="1.0"/><line x1="360.0" y1="130" x2="257.4123152059003" y2="350" stroke="#403a33" stroke-width="0.8" stroke-dasharray="3,2"/><line x1="360.0" y1="130" x2="279.92654846143546" y2="350" stroke="#403a33" stroke-width="0.8" stroke-dasharray="3,2"/><line x1="360.0" y1="130" x2="440.07345153856454" y2="350" stroke="#403a33" stroke-width="0.8" stroke-dasharray="3,2"/><line x1="360.0" y1="130" x2="462.5876847940997" y2="350" stroke="#403a33" stroke-width="0.8" stroke-dasharray="3,2"/><line x1="360.0" y1="130" x2="-21.051177665152863" y2="350" stroke="#888076" stroke-width="0.7" stroke-dasharray="2,3"/><line x1="360.0" y1="130" x2="140.00000000000003" y2="350" stroke="#888076" stroke-width="0.7" stroke-dasharray="2,3"/><line x1="360.0" y1="130" x2="580.0" y2="350" stroke="#888076" stroke-width="0.7" stroke-dasharray="2,3"/><line x1="360.0" y1="130" x2="741.0511776651529" y2="350" stroke="#888076" stroke-width="0.7" stroke-dasharray="2,3"/><line x1="140.0" y1="350" x2="580.0" y2="350" stroke="#1a1714" stroke-width="1.5"/><rect x="330.0" y="342" width="60" height="16" fill="#1a1714" stroke="#1a1714" stroke-width="1"/><text x="360.0" y="336" font-size="10" text-anchor="middle" font-weight="bold" fill="#1a1714">BF (on-axis)</text><rect x="260.0" y="342" width="50" height="16" fill="#403a33" stroke="#1a1714" stroke-width="1"/><rect x="410.0" y="342" width="50" height="16" fill="#403a33" stroke="#1a1714" stroke-width="1"/><text x="285.0" y="376" font-size="10" text-anchor="middle">ADF (10–50 mrad)</text><rect x="160.0" y="342" width="90" height="16" fill="#c9c2b8" stroke="#1a1714" stroke-width="1"/><rect x="470.0" y="342" width="90" height="16" fill="#c9c2b8" stroke="#1a1714" stroke-width="1"/><text x="205.0" y="376" font-size="10" text-anchor="middle">HAADF (&gt;50 mrad)</text><text x="515.0" y="376" font-size="10" text-anchor="middle">HAADF (&gt;50 mrad)</text><text x="580.0" y="346" font-size="9" font-style="italic" fill="#403a33">detector plane</text><text x="360.0" y="415" font-size="10" text-anchor="middle" font-style="italic" fill="#403a33">One scan, three images. The detector geometry is the contrast mechanism.</text><text x="360.0" y="432" font-size="10" text-anchor="middle" font-style="italic" fill="#403a33">BF: phase + diffraction. ADF: incoherent. HAADF: ~Z² Rutherford scattering.</text></svg>